<svg xmlns="http://www.w3.org/2000/svg" xmlns:xlink="http://www.w3.org/1999/xlink" xmlns:lucid="lucid" width="1480" height="1128"><g transform="translate(-300 -12)" lucid:page-tab-id="bnFGFoXKNEBSy"><path d="M0 0h2486v1870H0z" fill="#fff"/><path d="M320 208h1440v912H320z" stroke="#000" stroke-width="1.33" fill="#fff"/><path d="M710 282.67c0-5.9 4.78-10.67 10.67-10.67h170.66c5.9 0 10.67 4.78 10.67 10.67v74.66c0 5.9-4.78 10.67-10.67 10.67H720.67c-5.9 0-10.67-4.78-10.67-10.67z" stroke="#000" stroke-width="1.33" fill="#fff"/><use xlink:href="#a" transform="matrix(1,0,0,1,730,272) translate(25.851318359375 54.498779296875)"/><use xlink:href="#b" transform="matrix(1,0,0,1,730,272) translate(77.572509765625 54.498779296875)"/><path d="M496 416h96v128h-96z" stroke="#000" stroke-width="1.33" fill="#fff"/><use xlink:href="#c" transform="matrix(1,0,0,1,516,416) translate(0.5390625 70.498779296875)"/><path d="M805.34 368.78l-244.5 43.56" stroke="#000" stroke-width="1.33" fill="none"/><path d="M809.07 368.8l-3.63.64-.13-.77h3.75"/><path d="M546.12 414.96l13.24-7.07 1.62 9.12z" stroke="#000" stroke-width="1.33"/><path d="M998 282.67c0-5.9 4.78-10.67 10.67-10.67h170.66c5.9 0 10.67 4.78 10.67 10.67v74.66c0 5.9-4.78 10.67-10.67 10.67h-170.66c-5.9 0-10.67-4.78-10.67-10.67z" stroke="#000" stroke-width="1.33" fill="#fff"/><use xlink:href="#a" transform="matrix(1,0,0,1,1018,272) translate(17.399658203125 54.498779296875)"/><use xlink:href="#d" transform="matrix(1,0,0,1,1018,272) translate(69.120849609375 54.498779296875)"/><path d="M1038 432h112v128h-112z" stroke="#000" stroke-width="1.33" fill="#fff"/><use xlink:href="#e" transform="matrix(1,0,0,1,1058,432) translate(-0.95166015625 70.498779296875)"/><path d="M1094 369.33v44.9" stroke="#000" stroke-width="1.33" fill="none"/><path d="M1094.67 369.35h-1.34v-.68h1.34"/><path d="M1094 429.18l-4.64-14.27h9.28z" stroke="#000" stroke-width="1.33"/><path d="M440 712v-40h224v40z" stroke="#000" stroke-width="1.33" fill="#fff"/><path d="M664 712v168H440V712z" stroke="#000" stroke-width="1.33" fill="none"/><use xlink:href="#f" transform="matrix(1,0,0,1,440,672) translate(73.97216796875 26.498779296875)"/><path d="M464 736h192v128H464z" stroke="#000" stroke-opacity="0" stroke-width="1.33" fill-opacity="0"/><use xlink:href="#g" transform="matrix(1,0,0,1,484,736) translate(0 15.644480000000001)"/><use xlink:href="#h" transform="matrix(1,0,0,1,484,736) translate(0 39.111200000000004)"/><use xlink:href="#i" transform="matrix(1,0,0,1,484,736) translate(106.30641444444446 39.111200000000004)"/><use xlink:href="#j" transform="matrix(1,0,0,1,484,736) translate(0 62.577920000000006)"/><use xlink:href="#k" transform="matrix(1,0,0,1,484,736) translate(0 86.04464)"/><use xlink:href="#l" transform="matrix(1,0,0,1,484,736) translate(0 109.51136000000001)"/><use xlink:href="#m" transform="matrix(1,0,0,1,484,736) translate(0 132.97808000000003)"/><path d="M544 545.33v108.9" stroke="#000" stroke-width="1.33" fill="none"/><path d="M544.67 545.35h-1.34v-.68h1.34"/><path d="M544 669.18l-4.64-14.27h9.28z" stroke="#000" stroke-width="1.33"/><path d="M726 728v-40h224v40z" stroke="#000" stroke-width="1.33" fill="#fff"/><path d="M950 728v152H726V728z" stroke="#000" stroke-width="1.33" fill="none"/><use xlink:href="#n" transform="matrix(1,0,0,1,726,688) translate(78.736083984375 26.498779296875)"/><path d="M726 739.2h218V880H726z" stroke="#000" stroke-opacity="0" stroke-width="1.33" fill-opacity="0"/><use xlink:href="#o" transform="matrix(1,0,0,1,746,739.2) translate(0 17.06666666666667)"/><use xlink:href="#p" transform="matrix(1,0,0,1,746,739.2) translate(36.01 17.06666666666667)"/><use xlink:href="#q" transform="matrix(1,0,0,1,746,739.2) translate(0 41.24448000000001)"/><use xlink:href="#r" transform="matrix(1,0,0,1,746,739.2) translate(0 64.7112)"/><use xlink:href="#s" transform="matrix(1,0,0,1,746,739.2) translate(0 88.17792000000001)"/><use xlink:href="#t" transform="matrix(1,0,0,1,746,739.2) translate(0 111.64464000000002)"/><use xlink:href="#u" transform="matrix(1,0,0,1,746,739.2) translate(0 135.11136000000005)"/><path d="M1094 561.33V670.9" stroke="#000" stroke-width="1.33" fill="none"/><path d="M1094.67 561.35h-1.34v-.68h1.34"/><path d="M1094 685.84l-4.64-14.26h9.28z" stroke="#000" stroke-width="1.33"/><path d="M1302 282.67c0-5.9 4.78-10.67 10.67-10.67h170.66c5.9 0 10.67 4.78 10.67 10.67v74.66c0 5.9-4.78 10.67-10.67 10.67h-170.66c-5.9 0-10.67-4.78-10.67-10.67z" stroke="#000" stroke-width="1.33" fill="#fff"/><use xlink:href="#v" transform="matrix(1,0,0,1,1322,272) translate(1.56787109375 54.498779296875)"/><use xlink:href="#w" transform="matrix(1,0,0,1,1322,272) translate(53.2890625 54.498779296875)"/><path d="M1520 644.8v-40h240v40z" stroke="#000" stroke-width="1.33" fill="#fff"/><path d="M1760 644.8V832h-240V644.8z" stroke="#000" stroke-width="1.33" fill="none"/><use xlink:href="#x" transform="matrix(1,0,0,1,1520,604.8) translate(66.678466796875 26.498779296875)"/><path d="M1520 646.4h224v291.2h-224z" stroke="#000" stroke-opacity="0" stroke-width="1.33" fill-opacity="0"/><use xlink:href="#y" transform="matrix(1,0,0,1,1540,646.4) translate(0 15.644480000000001)"/><use xlink:href="#z" transform="matrix(1,0,0,1,1540,646.4) translate(0 39.111200000000004)"/><use xlink:href="#A" transform="matrix(1,0,0,1,1540,646.4) translate(0 62.577920000000006)"/><use xlink:href="#t" transform="matrix(1,0,0,1,1540,646.4) translate(0 86.04464)"/><use xlink:href="#B" transform="matrix(1,0,0,1,1540,646.4) translate(4 109.51136000000001)"/><path d="M1648 545.33v45.58" stroke="#000" stroke-width="1.33" fill="none"/><path d="M1648.67 545.35h-1.34v-.68h1.34"/><path d="M1648 605.84l-4.64-14.26h9.28z" stroke="#000" stroke-width="1.33"/><path d="M1576 384h144v160h-144z" stroke="#000" stroke-width="1.33" fill="#fff"/><use xlink:href="#x" transform="matrix(1,0,0,1,1596,384) translate(-1.321533203125 86.498779296875)"/><path d="M592 42.67c0-5.9 4.78-10.67 10.67-10.67h986.66c5.9 0 10.67 4.78 10.67 10.67v74.66c0 5.9-4.78 10.67-10.67 10.67H602.67c-5.9 0-10.67-4.78-10.67-10.67z" stroke="#000" stroke-width="1.33" fill="#fff"/><use xlink:href="#C" transform="matrix(1,0,0,1,612,32) translate(356.61279296875 60.99755859375)"/><use xlink:href="#D" transform="matrix(1,0,0,1,612,32) translate(428.41943359375 60.99755859375)"/><path d="M1095.6 129.2l-45.7 64.2" stroke="#000" stroke-width="1.33" fill="none"/><path d="M1096.15 129.6l-1.1-.76.13-.17h1.64"/><path d="M1041.25 205.58l4.5-14.3 7.55 5.36z" stroke="#000" stroke-width="1.33"/><path d="M1398.67 368.7l232.27 13.63" stroke="#000" stroke-width="1.33" fill="none"/><path d="M1398.64 369.37l-3.67-.2.02-.5h3.68"/><path d="M1645.85 383.2l-14.52 3.8.55-9.26z" stroke="#000" stroke-width="1.33"/><path d="M982 728v-40h224v40z" stroke="#000" stroke-width="1.33" fill="#fff"/><path d="M1206 728v152H982V728z" stroke="#000" stroke-width="1.33" fill="none"/><use xlink:href="#E" transform="matrix(1,0,0,1,982,688) translate(45.47216796875 26.498779296875)"/><path d="M990 726.7h210V880H990z" stroke="#000" stroke-opacity="0" stroke-width="1.33" fill-opacity="0"/><g><use xlink:href="#F" transform="matrix(1,0,0,1,1010,726.7072000000001) translate(0 33.97767999999999)"/><use xlink:href="#G" transform="matrix(1,0,0,1,1010,726.7072000000001) translate(0 57.444399999999995)"/><use xlink:href="#t" transform="matrix(1,0,0,1,1010,726.7072000000001) translate(0 80.91112)"/><use xlink:href="#H" transform="matrix(1,0,0,1,1010,726.7072000000001) translate(0 104.37783999999999)"/><use xlink:href="#I" transform="matrix(1,0,0,1,1010,726.7072000000001) translate(0 127.84456)"/></g><path d="M1238 728v-40h266v40z" stroke="#000" stroke-width="1.33" fill="#fff"/><path d="M1504 728v207h-266V728z" stroke="#000" stroke-width="1.33" fill="none"/><g><use xlink:href="#J" transform="matrix(1,0,0,1,1238,688) translate(55.371826171875 26.498779296875)"/></g><path d="M1246 736h210v160h-210z" stroke="#000" stroke-opacity="0" stroke-width="1.33" fill-opacity="0"/><g><use xlink:href="#F" transform="matrix(1,0,0,1,1266,736) translate(0 15.644480000000001)"/><use xlink:href="#K" transform="matrix(1,0,0,1,1266,736) translate(0 39.111200000000004)"/><use xlink:href="#L" transform="matrix(1,0,0,1,1266,736) translate(0 62.577920000000006)"/><use xlink:href="#M" transform="matrix(1,0,0,1,1266,736) translate(0 86.04464)"/><use xlink:href="#N" transform="matrix(1,0,0,1,1266,736) translate(0 109.51136000000001)"/><use xlink:href="#O" transform="matrix(1,0,0,1,1266,736) translate(0 132.97808000000003)"/><use xlink:href="#t" transform="matrix(1,0,0,1,1266,736) translate(0 156.44480000000004)"/><use xlink:href="#u" transform="matrix(1,0,0,1,1266,736) translate(0 179.91152000000005)"/></g><path d="M1151.67 496h204.86c2.76 0 5 2.24 5 5v167.83" stroke="#000" stroke-width="2" fill="none"/><path d="M1151.7 497h-1.03v-2h1.02"/><path d="M1361.53 684.1l-4.64-14.27h9.26z" stroke="#000" stroke-width="2"/><path d="M1036.33 496H851c-2.77 0-5 2.24-5 5v167.83" stroke="#000" stroke-width="2" fill="none"/><path d="M1037.33 497h-1.02v-2h1.03"/><path d="M846 684.1l-4.65-14.27h9.27z" stroke="#000" stroke-width="2"/><path d="M903.67 320h75.16" stroke="#000" stroke-width="2" fill="none"/><path d="M903.7 321h-1.03v-2h1.02"/><path d="M994.1 320l-14.27 4.64v-9.28z" stroke="#000" stroke-width="2"/><path d="M1191.67 320h91.16" stroke="#000" stroke-width="2" fill="none"/><path d="M1191.7 321h-1.03v-2h1.02"/><path d="M1298.1 320l-14.27 4.64v-9.28z" stroke="#000" stroke-width="2"/><defs><path d="M1366 0c4-412-9-843 9-1240-33 119-62 213-88 280L923 0H789L420-960c-31-92-62-184-89-280 13 403 5 827 7 1240H168v-1409h251l375 977c20 57 51 168 63 224 5-34 58-197 68-224l368-977h245V0h-172" id="P"/><path d="M137-1312v-172h180v172H137zM137 0v-1082h180V0H137" id="Q"/><path d="M779-765c-19-119-93-196-233-196-95 0-164 32-207 95s-64 170-64 320c0 144 23 251 68 320s114 104 205 104c139 0 224-79 240-212l182 12C946-119 781 22 553 20 230 17 87-201 87-542c0-338 145-557 464-560 225-1 380 129 413 323" id="R"/><path d="M318-861c55-157 83-241 257-241 24 0 48 3 73 10v165c-24-7-56-10-96-10-75 0-132 33-171 97s-59 156-59 276V0H142c-3-364 6-725-6-1082h170c5 123 8 196 8 221h4" id="S"/><path d="M571-1102c350 0 480 196 482 560 2 357-151 562-488 562C233 20 86-198 86-542c0-373 162-560 485-560zm-8 989c244 0 301-164 301-429 0-266-49-427-290-427-239 0-299 165-299 427 0 252 61 429 288 429" id="T"/><g id="a"><use transform="matrix(0.00927734375,0,0,0.00927734375,0,0)" xlink:href="#P"/><use transform="matrix(0.00927734375,0,0,0.00927734375,15.8271484375,0)" xlink:href="#Q"/><use transform="matrix(0.00927734375,0,0,0.00927734375,20.04833984375,0)" xlink:href="#R"/><use transform="matrix(0.00927734375,0,0,0.00927734375,29.54833984375,0)" xlink:href="#S"/><use transform="matrix(0.00927734375,0,0,0.00927734375,35.87548828125,0)" xlink:href="#T"/></g><path d="M1207-1021c-59-155-207-253-415-253-322-2-494 232-494 563 0 326 186 574 502 574 197 0 346-98 445-293l156 78C1298-131 1096 20 791 20c-448 0-682-279-687-731-5-437 254-721 686-719 309 2 507 125 598 349" id="U"/><path d="M138 0v-1484h180V0H138" id="V"/><path d="M87-548c0-338 159-553 484-554 325-2 484 204 477 599H276c-1 227 88 385 302 388 146 2 246-65 283-166l158 45C954-65 807 20 578 20 240 20 87-193 87-548zm775-93c-19-206-90-328-294-328-185 0-285 140-290 328h584" id="W"/><path d="M663-1102c251 0 343 119 343 381V0H825v-686c0-183-40-279-223-277-184 2-280 141-280 336V0H142c-3-345 6-754-6-1082h170c5 68 6 94 8 185h3c76-134 157-205 346-205" id="X"/><path d="M336-268c2 98 22 139 114 141 24 0 59-5 104-14V-8C495 8 434 16 372 16c-144 0-216-82-216-245v-722H31v-131h132l53-242h120v242h200v131H336v683" id="Y"/><g id="b"><use transform="matrix(0.00927734375,0,0,0.00927734375,0,0)" xlink:href="#U"/><use transform="matrix(0.00927734375,0,0,0.00927734375,13.72119140625,0)" xlink:href="#V"/><use transform="matrix(0.00927734375,0,0,0.00927734375,17.9423828125,0)" xlink:href="#Q"/><use transform="matrix(0.00927734375,0,0,0.00927734375,22.16357421875,0)" xlink:href="#W"/><use transform="matrix(0.00927734375,0,0,0.00927734375,32.73046875,0)" xlink:href="#X"/><use transform="matrix(0.00927734375,0,0,0.00927734375,43.29736328125,0)" xlink:href="#Y"/></g><g id="c"><use transform="matrix(0.00927734375,0,0,0.00927734375,0,0)" xlink:href="#R"/><use transform="matrix(0.00927734375,0,0,0.00927734375,9.5,0)" xlink:href="#V"/><use transform="matrix(0.00927734375,0,0,0.00927734375,13.72119140625,0)" xlink:href="#Q"/><use transform="matrix(0.00927734375,0,0,0.00927734375,17.9423828125,0)" xlink:href="#W"/><use transform="matrix(0.00927734375,0,0,0.00927734375,28.50927734375,0)" xlink:href="#X"/><use transform="matrix(0.00927734375,0,0,0.00927734375,39.076171875,0)" xlink:href="#Y"/><use transform="matrix(0.00927734375,0,0,0.00927734375,44.35498046875,0)" xlink:href="#W"/></g><path d="M761-1409c296-3 496 141 497 424 1 274-202 436-485 436H359V0H168v-1409h593zm305 426c0-182-109-273-328-273H359v556h387c213 0 320-94 320-283" id="Z"/><path d="M835 0c-5-29-11-137-10-174h-4C759-45 663 20 484 20 177 20 86-201 86-536c0-377 133-566 398-566 178 1 273 67 339 188-4-187-1-380-2-570h180v1261c0 113 2 187 6 223H835zm-14-554c0-255-58-415-289-415-91 0-151 37-196 101-76 109-77 543-1 651 44 63 105 98 195 98 235 0 291-173 291-435" id="aa"/><path d="M476 20C225 20 133-99 133-361v-721h181v686c0 183 40 279 223 277 184-2 280-141 280-336v-627h180c3 345-6 754 6 1082H833c-5-68-6-94-8-185h-3C746-51 665 20 476 20" id="ab"/><g id="d"><use transform="matrix(0.00927734375,0,0,0.00927734375,0,0)" xlink:href="#Z"/><use transform="matrix(0.00927734375,0,0,0.00927734375,12.6728515625,0)" xlink:href="#S"/><use transform="matrix(0.00927734375,0,0,0.00927734375,19,0)" xlink:href="#T"/><use transform="matrix(0.00927734375,0,0,0.00927734375,29.56689453125,0)" xlink:href="#aa"/><use transform="matrix(0.00927734375,0,0,0.00927734375,40.1337890625,0)" xlink:href="#ab"/><use transform="matrix(0.00927734375,0,0,0.00927734375,50.70068359375,0)" xlink:href="#R"/><use transform="matrix(0.00927734375,0,0,0.00927734375,60.20068359375,0)" xlink:href="#Y"/></g><path d="M513-963c-139 1-238 29-238 149 0 72 41 100 95 127 55 27 348 94 404 125 101 56 176 118 176 263C950-73 758 21 511 20 254 19 107-55 57-254l159-31c34 123 133 168 295 168 156 0 264-34 264-168 0-156-183-165-315-204-171-51-245-68-323-172-26-35-37-82-37-135 0-220 172-304 413-303 232 1 379 74 418 265l-162 20c-23-104-122-150-256-149" id="ac"/><path d="M613 0H400L7-1082h192c109 337 207 579 307 941 97-323 214-627 320-941h191" id="ad"/><g id="e"><use transform="matrix(0.00927734375,0,0,0.00927734375,0,0)" xlink:href="#ac"/><use transform="matrix(0.00927734375,0,0,0.00927734375,9.5,0)" xlink:href="#W"/><use transform="matrix(0.00927734375,0,0,0.00927734375,20.06689453125,0)" xlink:href="#S"/><use transform="matrix(0.00927734375,0,0,0.00927734375,26.39404296875,0)" xlink:href="#ad"/><use transform="matrix(0.00927734375,0,0,0.00927734375,35.89404296875,0)" xlink:href="#Q"/><use transform="matrix(0.00927734375,0,0,0.00927734375,40.115234375,0)" xlink:href="#R"/><use transform="matrix(0.00927734375,0,0,0.00927734375,49.615234375,0)" xlink:href="#Q"/><use transform="matrix(0.00927734375,0,0,0.00927734375,53.83642578125,0)" xlink:href="#T"/><use transform="matrix(0.00927734375,0,0,0.00927734375,64.4033203125,0)" xlink:href="#ac"/></g><path d="M655-1102c307 0 398 221 398 556 0 377-133 566-398 566-180 0-272-66-339-188 1 22-7 151-10 168H132c4-36 6-110 6-223v-1261h180c-2 196 4 384-4 576h4c62-129 158-194 337-194zM318-529c0 254 57 416 289 416 91 0 152-37 197-101 76-109 76-543 0-651-44-63-105-98-195-98-236 0-291 169-291 434" id="ae"/><path d="M-31 407V277h1193v130H-31" id="af"/><g id="f"><use transform="matrix(0.00927734375,0,0,0.00927734375,0,0)" xlink:href="#aa"/><use transform="matrix(0.00927734375,0,0,0.00927734375,10.56689453125,0)" xlink:href="#ae"/><use transform="matrix(0.00927734375,0,0,0.00927734375,21.1337890625,0)" xlink:href="#af"/><use transform="matrix(0.00927734375,0,0,0.00927734375,31.70068359375,0)" xlink:href="#R"/><use transform="matrix(0.00927734375,0,0,0.00927734375,41.20068359375,0)" xlink:href="#V"/><use transform="matrix(0.00927734375,0,0,0.00927734375,45.421875,0)" xlink:href="#Q"/><use transform="matrix(0.00927734375,0,0,0.00927734375,49.64306640625,0)" xlink:href="#W"/><use transform="matrix(0.00927734375,0,0,0.00927734375,60.2099609375,0)" xlink:href="#X"/><use transform="matrix(0.00927734375,0,0,0.00927734375,70.77685546875,0)" xlink:href="#Y"/></g><path d="M117-194c89-4 53 116 60 194h-32v-121c0-31-8-49-39-48C34-167 62-67 57 0H25l-1-190h30c1 10-1 24 2 32 11-22 29-35 61-36" id="ag"/><path d="M114-163C36-179 61-72 57 0H25l-1-190h30c1 12-1 29 2 39 6-27 23-49 58-41v29" id="ah"/><path d="M100-194c62-1 85 37 85 99 1 63-27 99-86 99S16-35 15-95c0-66 28-99 85-99zM99-20c44 1 53-31 53-75 0-43-8-75-51-75s-53 32-53 75 10 74 51 75" id="ai"/><path d="M85-194c31 0 48 13 60 33l-1-100h32l1 261h-30c-2-10 0-23-3-31C134-8 116 4 85 4 32 4 16-35 15-94c0-66 23-100 70-100zm9 24c-40 0-46 34-46 75 0 40 6 74 45 74 42 0 51-32 51-76 0-42-9-74-50-73" id="aj"/><path d="M96-169c-40 0-48 33-48 73s9 75 48 75c24 0 41-14 43-38l32 2c-6 37-31 61-74 61-59 0-76-41-82-99-10-93 101-131 147-64 4 7 5 14 7 22l-32 3c-4-21-16-35-41-35" id="ak"/><g id="g"><use transform="matrix(0.05432111111111112,0,0,0.05432111111111112,0,0)" xlink:href="#ag"/><use transform="matrix(0.05432111111111112,0,0,0.05432111111111112,10.864222222222224,0)" xlink:href="#ah"/><use transform="matrix(0.05432111111111112,0,0,0.05432111111111112,17.328434444444447,0)" xlink:href="#ai"/><use transform="matrix(0.05432111111111112,0,0,0.05432111111111112,28.19265666666667,0)" xlink:href="#aj"/><use transform="matrix(0.05432111111111112,0,0,0.05432111111111112,39.056878888888896,0)" xlink:href="#ai"/><use transform="matrix(0.05432111111111112,0,0,0.05432111111111112,49.92110111111112,0)" xlink:href="#ak"/></g><path d="M59-47c-2 24 18 29 38 22v24C64 9 27 4 27-40v-127H5v-23h24l9-43h21v43h35v23H59v120" id="al"/><path d="M24-231v-30h32v30H24zM24 0v-190h32V0H24" id="am"/><path d="M115-194c55 1 70 41 70 98S169 2 115 4C84 4 66-9 55-30l1 105H24l-1-265h31l2 30c10-21 28-34 59-34zm-8 174c40 0 45-34 45-75s-6-73-45-74c-42 0-51 32-51 76 0 43 10 73 51 73" id="an"/><path d="M87 75C49 33 22-17 22-94c0-76 28-126 65-167h31c-38 41-64 92-64 168S80 34 118 75H87" id="ao"/><path d="M68-38c1 34 0 65-14 84H32c9-13 17-26 17-46H33v-38h35" id="ap"/><g id="h"><use transform="matrix(0.05432111111111112,0,0,0.05432111111111112,0,0)" xlink:href="#al"/><use transform="matrix(0.05432111111111112,0,0,0.05432111111111112,5.432111111111112,0)" xlink:href="#am"/><use transform="matrix(0.05432111111111112,0,0,0.05432111111111112,9.723478888888891,0)" xlink:href="#an"/><use transform="matrix(0.05432111111111112,0,0,0.05432111111111112,20.587701111111116,0)" xlink:href="#ai"/><use transform="matrix(0.05432111111111112,0,0,0.05432111111111112,31.451923333333337,0)" xlink:href="#aj"/><use transform="matrix(0.05432111111111112,0,0,0.05432111111111112,42.316145555555565,0)" xlink:href="#ai"/><use transform="matrix(0.05432111111111112,0,0,0.05432111111111112,53.18036777777779,0)" xlink:href="#ak"/><use transform="matrix(0.05432111111111112,0,0,0.05432111111111112,62.95816777777779,0)" xlink:href="#ao"/><use transform="matrix(0.05432111111111112,0,0,0.05432111111111112,69.42238,0)" xlink:href="#aj"/><use transform="matrix(0.05432111111111112,0,0,0.05432111111111112,80.28660222222223,0)" xlink:href="#ag"/><use transform="matrix(0.05432111111111112,0,0,0.05432111111111112,91.15082444444445,0)" xlink:href="#am"/><use transform="matrix(0.05432111111111112,0,0,0.05432111111111112,95.44219222222223,0)" xlink:href="#ap"/></g><path d="M84 4C-5 8 30-112 23-190h32v120c0 31 7 50 39 49 72-2 45-101 50-169h31l1 190h-30c-1-10 1-25-2-33-11 22-28 36-60 37" id="aq"/><path d="M33-261c38 41 65 92 65 168S71 34 33 75H2C39 34 66-17 66-93S39-220 2-261h31" id="ar"/><g id="i"><use transform="matrix(0.05432111111111112,0,0,0.05432111111111112,0,0)" xlink:href="#ah"/><use transform="matrix(0.05432111111111112,0,0,0.05432111111111112,6.464212222222223,0)" xlink:href="#aq"/><use transform="matrix(0.05432111111111112,0,0,0.05432111111111112,17.328434444444447,0)" xlink:href="#ak"/><use transform="matrix(0.05432111111111112,0,0,0.05432111111111112,27.106234444444446,0)" xlink:href="#ar"/></g><path d="M210-169c-67 3-38 105-44 169h-31v-121c0-29-5-50-35-48C34-165 62-65 56 0H25l-1-190h30c1 10-1 24 2 32 10-44 99-50 107 0 11-21 27-35 58-36 85-2 47 119 55 194h-31v-121c0-29-5-49-35-48" id="as"/><path d="M115-194c53 0 69 39 70 98 0 66-23 100-70 100C84 3 66-7 56-30L54 0H23l1-261h32v101c10-23 28-34 59-34zm-8 174c40 0 45-34 45-75 0-40-5-75-45-74-42 0-51 32-51 76 0 43 10 73 51 73" id="at"/><path d="M100-194c63 0 86 42 84 106H49c0 40 14 67 53 68 26 1 43-12 49-29l28 8c-11 28-37 45-77 45C44 4 14-33 15-96c1-61 26-98 85-98zm52 81c6-60-76-77-97-28-3 7-6 17-6 28h103" id="au"/><g id="j"><use transform="matrix(0.05432111111111112,0,0,0.05432111111111112,0,0)" xlink:href="#ag"/><use transform="matrix(0.05432111111111112,0,0,0.05432111111111112,10.864222222222224,0)" xlink:href="#ai"/><use transform="matrix(0.05432111111111112,0,0,0.05432111111111112,21.72844444444445,0)" xlink:href="#as"/><use transform="matrix(0.05432111111111112,0,0,0.05432111111111112,37.97045666666668,0)" xlink:href="#at"/><use transform="matrix(0.05432111111111112,0,0,0.05432111111111112,48.8346788888889,0)" xlink:href="#ah"/><use transform="matrix(0.05432111111111112,0,0,0.05432111111111112,55.298891111111125,0)" xlink:href="#au"/></g><path d="M141-36C126-15 110 5 73 4 37 3 15-17 15-53c-1-64 63-63 125-63 3-35-9-54-41-54-24 1-41 7-42 31l-33-3c5-37 33-52 76-52 45 0 72 20 72 64v82c-1 20 7 32 28 27v20c-31 9-61-2-59-35zM48-53c0 20 12 33 32 33 41-3 63-29 60-74-43 2-92-5-92 41" id="av"/><path d="M24 0v-261h32V0H24" id="aw"/><path d="M135-143c-3-34-86-38-87 0 15 53 115 12 119 90S17 21 10-45l28-5c4 36 97 45 98 0-10-56-113-15-118-90-4-57 82-63 122-42 12 7 21 19 24 35" id="ax"/><g id="k"><use transform="matrix(0.05432111111111112,0,0,0.05432111111111112,0,0)" xlink:href="#av"/><use transform="matrix(0.05432111111111112,0,0,0.05432111111111112,10.864222222222224,0)" xlink:href="#an"/><use transform="matrix(0.05432111111111112,0,0,0.05432111111111112,21.72844444444445,0)" xlink:href="#au"/><use transform="matrix(0.05432111111111112,0,0,0.05432111111111112,32.59266666666667,0)" xlink:href="#aw"/><use transform="matrix(0.05432111111111112,0,0,0.05432111111111112,36.88403444444445,0)" xlink:href="#aw"/><use transform="matrix(0.05432111111111112,0,0,0.05432111111111112,41.17540222222223,0)" xlink:href="#am"/><use transform="matrix(0.05432111111111112,0,0,0.05432111111111112,45.46677000000001,0)" xlink:href="#aj"/><use transform="matrix(0.05432111111111112,0,0,0.05432111111111112,56.33099222222223,0)" xlink:href="#ai"/><use transform="matrix(0.05432111111111112,0,0,0.05432111111111112,67.19521444444446,0)" xlink:href="#ax"/></g><g id="l"><use transform="matrix(0.05432111111111112,0,0,0.05432111111111112,0,0)" xlink:href="#ak"/><use transform="matrix(0.05432111111111112,0,0,0.05432111111111112,9.777800000000001,0)" xlink:href="#au"/><use transform="matrix(0.05432111111111112,0,0,0.05432111111111112,20.642022222222224,0)" xlink:href="#aw"/><use transform="matrix(0.05432111111111112,0,0,0.05432111111111112,24.933390000000003,0)" xlink:href="#aq"/><use transform="matrix(0.05432111111111112,0,0,0.05432111111111112,35.79761222222223,0)" xlink:href="#aw"/><use transform="matrix(0.05432111111111112,0,0,0.05432111111111112,40.08898000000001,0)" xlink:href="#av"/><use transform="matrix(0.05432111111111112,0,0,0.05432111111111112,50.95320222222223,0)" xlink:href="#ah"/></g><path d="M233-177c-1 41-23 64-60 70L243 0h-38l-65-103H63V0H30v-248c88 3 205-21 203 71zM63-129c60-2 137 13 137-47 0-61-80-42-137-45v92" id="ay"/><path d="M9 0v-24l116-142H16v-24h144v24L44-24h123V0H9" id="az"/><path d="M185-189c-5-48-123-54-124 2 14 75 158 14 163 119 3 78-121 87-175 55-17-10-28-26-33-46l33-7c5 56 141 63 141-1 0-78-155-14-162-118-5-82 145-84 179-34 5 7 8 16 11 25" id="aA"/><g id="m"><use transform="matrix(0.05432111111111112,0,0,0.05432111111111112,0,0)" xlink:href="#ay"/><use transform="matrix(0.05432111111111112,0,0,0.05432111111111112,14.06916777777778,0)" xlink:href="#av"/><use transform="matrix(0.05432111111111112,0,0,0.05432111111111112,24.933390000000003,0)" xlink:href="#az"/><use transform="matrix(0.05432111111111112,0,0,0.05432111111111112,34.71119,0)" xlink:href="#ai"/><use transform="matrix(0.05432111111111112,0,0,0.05432111111111112,45.575412222222226,0)" xlink:href="#ag"/><use transform="matrix(0.05432111111111112,0,0,0.05432111111111112,56.43963444444445,0)" xlink:href="#aA"/><use transform="matrix(0.05432111111111112,0,0,0.05432111111111112,69.47670111111111,0)" xlink:href="#ai"/><use transform="matrix(0.05432111111111112,0,0,0.05432111111111112,80.34092333333334,0)" xlink:href="#ak"/><use transform="matrix(0.05432111111111112,0,0,0.05432111111111112,90.11872333333334,0)" xlink:href="#am"/><use transform="matrix(0.05432111111111112,0,0,0.05432111111111112,94.41009111111111,0)" xlink:href="#av"/><use transform="matrix(0.05432111111111112,0,0,0.05432111111111112,105.27431333333334,0)" xlink:href="#aw"/></g><g id="n"><use transform="matrix(0.00927734375,0,0,0.00927734375,0,0)" xlink:href="#R"/><use transform="matrix(0.00927734375,0,0,0.00927734375,9.5,0)" xlink:href="#S"/><use transform="matrix(0.00927734375,0,0,0.00927734375,15.8271484375,0)" xlink:href="#W"/><use transform="matrix(0.00927734375,0,0,0.00927734375,26.39404296875,0)" xlink:href="#aa"/><use transform="matrix(0.00927734375,0,0,0.00927734375,36.9609375,0)" xlink:href="#Q"/><use transform="matrix(0.00927734375,0,0,0.00927734375,41.18212890625,0)" xlink:href="#Y"/><use transform="matrix(0.00927734375,0,0,0.00927734375,46.4609375,0)" xlink:href="#T"/><use transform="matrix(0.00927734375,0,0,0.00927734375,57.02783203125,0)" xlink:href="#ac"/></g><g id="o"><use transform="matrix(0.05432111111111112,0,0,0.05432111111111112,0,0)" xlink:href="#am"/><use transform="matrix(0.05432111111111112,0,0,0.05432111111111112,4.291367777777778,0)" xlink:href="#aj"/></g><g id="q"><use transform="matrix(0.05432111111111112,0,0,0.05432111111111112,0,0)" xlink:href="#al"/><use transform="matrix(0.05432111111111112,0,0,0.05432111111111112,5.432111111111112,0)" xlink:href="#am"/><use transform="matrix(0.05432111111111112,0,0,0.05432111111111112,9.723478888888891,0)" xlink:href="#an"/><use transform="matrix(0.05432111111111112,0,0,0.05432111111111112,20.587701111111116,0)" xlink:href="#ai"/><use transform="matrix(0.05432111111111112,0,0,0.05432111111111112,31.451923333333337,0)" xlink:href="#ao"/><use transform="matrix(0.05432111111111112,0,0,0.05432111111111112,37.91613555555556,0)" xlink:href="#an"/><use transform="matrix(0.05432111111111112,0,0,0.05432111111111112,48.78035777777779,0)" xlink:href="#au"/><use transform="matrix(0.05432111111111112,0,0,0.05432111111111112,59.644580000000005,0)" xlink:href="#ah"/><use transform="matrix(0.05432111111111112,0,0,0.05432111111111112,66.10879222222223,0)" xlink:href="#ax"/><use transform="matrix(0.05432111111111112,0,0,0.05432111111111112,75.88659222222223,0)" xlink:href="#ai"/><use transform="matrix(0.05432111111111112,0,0,0.05432111111111112,86.75081444444446,0)" xlink:href="#ag"/><use transform="matrix(0.05432111111111112,0,0,0.05432111111111112,97.61503666666668,0)" xlink:href="#av"/><use transform="matrix(0.05432111111111112,0,0,0.05432111111111112,108.47925888888891,0)" xlink:href="#aw"/><use transform="matrix(0.05432111111111112,0,0,0.05432111111111112,112.77062666666669,0)" xlink:href="#ap"/></g><path d="M32 76v-337h29V76H32" id="aB"/><g id="r"><use transform="matrix(0.05432111111111112,0,0,0.05432111111111112,0,0)" xlink:href="#au"/><use transform="matrix(0.05432111111111112,0,0,0.05432111111111112,10.864222222222224,0)" xlink:href="#as"/><use transform="matrix(0.05432111111111112,0,0,0.05432111111111112,27.10623444444445,0)" xlink:href="#an"/><use transform="matrix(0.05432111111111112,0,0,0.05432111111111112,37.97045666666668,0)" xlink:href="#ah"/><use transform="matrix(0.05432111111111112,0,0,0.05432111111111112,44.4346688888889,0)" xlink:href="#au"/><use transform="matrix(0.05432111111111112,0,0,0.05432111111111112,55.298891111111125,0)" xlink:href="#ax"/><use transform="matrix(0.05432111111111112,0,0,0.05432111111111112,65.07669111111113,0)" xlink:href="#av"/><use transform="matrix(0.05432111111111112,0,0,0.05432111111111112,75.94091333333336,0)" xlink:href="#ah"/><use transform="matrix(0.05432111111111112,0,0,0.05432111111111112,82.40512555555557,0)" xlink:href="#am"/><use transform="matrix(0.05432111111111112,0,0,0.05432111111111112,86.69649333333335,0)" xlink:href="#aB"/><use transform="matrix(0.05432111111111112,0,0,0.05432111111111112,91.74835666666668,0)" xlink:href="#av"/><use transform="matrix(0.05432111111111112,0,0,0.05432111111111112,102.6125788888889,0)" xlink:href="#aw"/><use transform="matrix(0.05432111111111112,0,0,0.05432111111111112,106.90394666666668,0)" xlink:href="#ar"/></g><path d="M30-248c118-7 216 8 213 122C240-48 200 0 122 0H30v-248zM63-27c89 8 146-16 146-99s-60-101-146-95v194" id="aC"/><g id="s"><use transform="matrix(0.05432111111111112,0,0,0.05432111111111112,0,0)" xlink:href="#as"/><use transform="matrix(0.05432111111111112,0,0,0.05432111111111112,16.242012222222225,0)" xlink:href="#ai"/><use transform="matrix(0.05432111111111112,0,0,0.05432111111111112,27.10623444444445,0)" xlink:href="#ag"/><use transform="matrix(0.05432111111111112,0,0,0.05432111111111112,37.97045666666668,0)" xlink:href="#al"/><use transform="matrix(0.05432111111111112,0,0,0.05432111111111112,43.40256777777779,0)" xlink:href="#ai"/><use transform="matrix(0.05432111111111112,0,0,0.05432111111111112,54.266790000000015,0)" xlink:href="#aC"/><use transform="matrix(0.05432111111111112,0,0,0.05432111111111112,68.3359577777778,0)" xlink:href="#au"/><use transform="matrix(0.05432111111111112,0,0,0.05432111111111112,79.20018000000002,0)" xlink:href="#ax"/><use transform="matrix(0.05432111111111112,0,0,0.05432111111111112,88.97798000000002,0)" xlink:href="#au"/><use transform="matrix(0.05432111111111112,0,0,0.05432111111111112,99.84220222222224,0)" xlink:href="#as"/><use transform="matrix(0.05432111111111112,0,0,0.05432111111111112,116.08421444444446,0)" xlink:href="#at"/><use transform="matrix(0.05432111111111112,0,0,0.05432111111111112,126.94843666666668,0)" xlink:href="#ai"/><use transform="matrix(0.05432111111111112,0,0,0.05432111111111112,137.8126588888889,0)" xlink:href="#aw"/><use transform="matrix(0.05432111111111112,0,0,0.05432111111111112,142.10402666666667,0)" xlink:href="#ax"/><use transform="matrix(0.05432111111111112,0,0,0.05432111111111112,151.88182666666668,0)" xlink:href="#ai"/></g><path d="M101-234c-31-9-42 10-38 44h38v23H63V0H32v-167H5v-23h27c-7-52 17-82 69-68v24" id="aD"/><path d="M106-169C34-169 62-67 57 0H25v-261h32l-1 103c12-21 28-36 61-36 89 0 53 116 60 194h-32v-121c2-32-8-49-39-48" id="aE"/><path d="M205 0l-28-72H64L36 0H1l101-248h38L239 0h-34zm-38-99l-47-123c-12 45-31 82-46 123h93" id="aF"/><g id="t"><use transform="matrix(0.05432111111111112,0,0,0.05432111111111112,0,0)" xlink:href="#aD"/><use transform="matrix(0.05432111111111112,0,0,0.05432111111111112,5.432111111111112,0)" xlink:href="#au"/><use transform="matrix(0.05432111111111112,0,0,0.05432111111111112,16.296333333333337,0)" xlink:href="#ak"/><use transform="matrix(0.05432111111111112,0,0,0.05432111111111112,26.074133333333336,0)" xlink:href="#aE"/><use transform="matrix(0.05432111111111112,0,0,0.05432111111111112,36.93835555555556,0)" xlink:href="#av"/><use transform="matrix(0.05432111111111112,0,0,0.05432111111111112,47.802577777777785,0)" xlink:href="#aF"/><use transform="matrix(0.05432111111111112,0,0,0.05432111111111112,60.83964444444445,0)" xlink:href="#an"/><use transform="matrix(0.05432111111111112,0,0,0.05432111111111112,71.70386666666667,0)" xlink:href="#au"/><use transform="matrix(0.05432111111111112,0,0,0.05432111111111112,82.5680888888889,0)" xlink:href="#ah"/><use transform="matrix(0.05432111111111112,0,0,0.05432111111111112,89.03230111111111,0)" xlink:href="#al"/><use transform="matrix(0.05432111111111112,0,0,0.05432111111111112,94.46441222222222,0)" xlink:href="#aq"/><use transform="matrix(0.05432111111111112,0,0,0.05432111111111112,105.32863444444445,0)" xlink:href="#ah"/><use transform="matrix(0.05432111111111112,0,0,0.05432111111111112,111.79284666666666,0)" xlink:href="#av"/></g><path d="M212-179c-10-28-35-45-73-45-59 0-87 40-87 99 0 60 29 101 89 101 43 0 62-24 78-52l27 14C228-24 195 4 139 4 59 4 22-46 18-125c-6-104 99-153 187-111 19 9 31 26 39 46" id="aG"/><path d="M30 0v-248h33v221h125V0H30" id="aH"/><path d="M33 0v-248h34V0H33" id="aI"/><path d="M30 0v-248h187v28H63v79h144v27H63v87h162V0H30" id="aJ"/><path d="M190 0L58-211 59 0H30v-248h39L202-35l-2-213h31V0h-41" id="aK"/><path d="M127-220V0H93v-220H8v-28h204v28h-85" id="aL"/><g id="u"><use transform="matrix(0.05432111111111112,0,0,0.05432111111111112,0,0)" xlink:href="#aG"/><use transform="matrix(0.05432111111111112,0,0,0.05432111111111112,14.06916777777778,0)" xlink:href="#aH"/><use transform="matrix(0.05432111111111112,0,0,0.05432111111111112,24.933390000000003,0)" xlink:href="#aI"/><use transform="matrix(0.05432111111111112,0,0,0.05432111111111112,30.365501111111115,0)" xlink:href="#aJ"/><use transform="matrix(0.05432111111111112,0,0,0.05432111111111112,43.40256777777778,0)" xlink:href="#aK"/><use transform="matrix(0.05432111111111112,0,0,0.05432111111111112,57.47173555555556,0)" xlink:href="#aL"/><use transform="matrix(0.05432111111111112,0,0,0.05432111111111112,69.3680588888889,0)" xlink:href="#aJ"/></g><g id="v"><use transform="matrix(0.00927734375,0,0,0.00927734375,0,0)" xlink:href="#P"/><use transform="matrix(0.00927734375,0,0,0.00927734375,15.8271484375,0)" xlink:href="#Q"/><use transform="matrix(0.00927734375,0,0,0.00927734375,20.04833984375,0)" xlink:href="#R"/><use transform="matrix(0.00927734375,0,0,0.00927734375,29.54833984375,0)" xlink:href="#S"/><use transform="matrix(0.00927734375,0,0,0.00927734375,35.87548828125,0)" xlink:href="#T"/></g><path d="M1195-963c-175 0-249 144-249 336V0H768v-686c-5-190-26-277-198-277-171 0-249 147-249 336V0H142c-3-345 6-754-6-1082h170c5 68 6 94 8 185h3c69-134 140-205 316-205 171 0 257 66 294 205h3c67-129 152-205 328-205 238 0 313 127 313 381V0h-178v-686c-5-190-26-277-198-277" id="aM"/><g id="w"><use transform="matrix(0.00927734375,0,0,0.00927734375,0,0)" xlink:href="#P"/><use transform="matrix(0.00927734375,0,0,0.00927734375,15.8271484375,0)" xlink:href="#T"/><use transform="matrix(0.00927734375,0,0,0.00927734375,26.39404296875,0)" xlink:href="#ad"/><use transform="matrix(0.00927734375,0,0,0.00927734375,35.89404296875,0)" xlink:href="#Q"/><use transform="matrix(0.00927734375,0,0,0.00927734375,40.115234375,0)" xlink:href="#aM"/><use transform="matrix(0.00927734375,0,0,0.00927734375,55.9423828125,0)" xlink:href="#Q"/><use transform="matrix(0.00927734375,0,0,0.00927734375,60.16357421875,0)" xlink:href="#W"/><use transform="matrix(0.00927734375,0,0,0.00927734375,70.73046875,0)" xlink:href="#X"/><use transform="matrix(0.00927734375,0,0,0.00927734375,81.29736328125,0)" xlink:href="#Y"/><use transform="matrix(0.00927734375,0,0,0.00927734375,86.576171875,0)" xlink:href="#T"/></g><g id="x"><use transform="matrix(0.00927734375,0,0,0.00927734375,0,0)" xlink:href="#aM"/><use transform="matrix(0.00927734375,0,0,0.00927734375,15.8271484375,0)" xlink:href="#T"/><use transform="matrix(0.00927734375,0,0,0.00927734375,26.39404296875,0)" xlink:href="#ad"/><use transform="matrix(0.00927734375,0,0,0.00927734375,35.89404296875,0)" xlink:href="#Q"/><use transform="matrix(0.00927734375,0,0,0.00927734375,40.115234375,0)" xlink:href="#aM"/><use transform="matrix(0.00927734375,0,0,0.00927734375,55.9423828125,0)" xlink:href="#Q"/><use transform="matrix(0.00927734375,0,0,0.00927734375,60.16357421875,0)" xlink:href="#W"/><use transform="matrix(0.00927734375,0,0,0.00927734375,70.73046875,0)" xlink:href="#X"/><use transform="matrix(0.00927734375,0,0,0.00927734375,81.29736328125,0)" xlink:href="#Y"/><use transform="matrix(0.00927734375,0,0,0.00927734375,86.576171875,0)" xlink:href="#T"/><use transform="matrix(0.00927734375,0,0,0.00927734375,97.14306640625,0)" xlink:href="#ac"/></g><g id="y"><use transform="matrix(0.05432111111111112,0,0,0.05432111111111112,0,0)" xlink:href="#am"/><use transform="matrix(0.05432111111111112,0,0,0.05432111111111112,4.291367777777778,0)" xlink:href="#aj"/></g><path d="M30-248c87 1 191-15 191 75 0 78-77 80-158 76V0H30v-248zm33 125c57 0 124 11 124-50 0-59-68-47-124-48v98" id="aN"/><g id="z"><use transform="matrix(0.05432111111111112,0,0,0.05432111111111112,0,0)" xlink:href="#am"/><use transform="matrix(0.05432111111111112,0,0,0.05432111111111112,4.291367777777778,0)" xlink:href="#aj"/><use transform="matrix(0.05432111111111112,0,0,0.05432111111111112,15.155590000000005,0)" xlink:href="#aN"/><use transform="matrix(0.05432111111111112,0,0,0.05432111111111112,28.19265666666667,0)" xlink:href="#ah"/><use transform="matrix(0.05432111111111112,0,0,0.05432111111111112,34.656868888888894,0)" xlink:href="#ai"/><use transform="matrix(0.05432111111111112,0,0,0.05432111111111112,45.52109111111112,0)" xlink:href="#aj"/><use transform="matrix(0.05432111111111112,0,0,0.05432111111111112,56.38531333333334,0)" xlink:href="#aq"/><use transform="matrix(0.05432111111111112,0,0,0.05432111111111112,67.24953555555557,0)" xlink:href="#ak"/><use transform="matrix(0.05432111111111112,0,0,0.05432111111111112,77.02733555555557,0)" xlink:href="#al"/><use transform="matrix(0.05432111111111112,0,0,0.05432111111111112,82.45944666666668,0)" xlink:href="#ai"/></g><g id="A"><use transform="matrix(0.05432111111111112,0,0,0.05432111111111112,0,0)" xlink:href="#as"/><use transform="matrix(0.05432111111111112,0,0,0.05432111111111112,16.242012222222225,0)" xlink:href="#ai"/><use transform="matrix(0.05432111111111112,0,0,0.05432111111111112,27.10623444444445,0)" xlink:href="#ag"/><use transform="matrix(0.05432111111111112,0,0,0.05432111111111112,37.97045666666668,0)" xlink:href="#al"/><use transform="matrix(0.05432111111111112,0,0,0.05432111111111112,43.40256777777779,0)" xlink:href="#ai"/></g><path d="M240 0l2-218c-23 76-54 145-80 218h-23L58-218 59 0H30v-248h44l77 211c21-75 51-140 76-211h43V0h-30" id="aO"/><path d="M108 0H70L1-190h34L89-25l56-165h34" id="aP"/><path d="M177-190C167-65 218 103 67 71c-23-6-38-20-44-43l32-5c15 47 100 32 89-28v-30C133-14 115 1 83 1 29 1 15-40 15-95c0-56 16-97 71-98 29-1 48 16 59 35 1-10 0-23 2-32h30zM94-22c36 0 50-32 50-73 0-42-14-75-50-75-39 0-46 34-46 75s6 73 46 73" id="aQ"/><g id="B"><use transform="matrix(0.05432111111111112,0,0,0.05432111111111112,0,0)" xlink:href="#al"/><use transform="matrix(0.05432111111111112,0,0,0.05432111111111112,5.432111111111112,0)" xlink:href="#am"/><use transform="matrix(0.05432111111111112,0,0,0.05432111111111112,9.723478888888891,0)" xlink:href="#an"/><use transform="matrix(0.05432111111111112,0,0,0.05432111111111112,20.587701111111116,0)" xlink:href="#ai"/><use transform="matrix(0.05432111111111112,0,0,0.05432111111111112,31.451923333333337,0)" xlink:href="#aO"/><use transform="matrix(0.05432111111111112,0,0,0.05432111111111112,47.69393555555557,0)" xlink:href="#ai"/><use transform="matrix(0.05432111111111112,0,0,0.05432111111111112,58.5581577777778,0)" xlink:href="#aP"/><use transform="matrix(0.05432111111111112,0,0,0.05432111111111112,68.3359577777778,0)" xlink:href="#ao"/><use transform="matrix(0.05432111111111112,0,0,0.05432111111111112,74.80017000000001,0)" xlink:href="#am"/><use transform="matrix(0.05432111111111112,0,0,0.05432111111111112,79.09153777777779,0)" xlink:href="#ag"/><use transform="matrix(0.05432111111111112,0,0,0.05432111111111112,89.95576000000001,0)" xlink:href="#aQ"/><use transform="matrix(0.05432111111111112,0,0,0.05432111111111112,100.81998222222224,0)" xlink:href="#ah"/><use transform="matrix(0.05432111111111112,0,0,0.05432111111111112,107.28419444444447,0)" xlink:href="#au"/><use transform="matrix(0.05432111111111112,0,0,0.05432111111111112,118.14841666666668,0)" xlink:href="#ax"/><use transform="matrix(0.05432111111111112,0,0,0.05432111111111112,127.92621666666669,0)" xlink:href="#ai"/><use transform="matrix(0.05432111111111112,0,0,0.05432111111111112,138.7904388888889,0)" xlink:href="#ap"/><use transform="matrix(0.05432111111111112,0,0,0.05432111111111112,144.22255,0)" xlink:href="#ax"/><use transform="matrix(0.05432111111111112,0,0,0.05432111111111112,154.00035000000003,0)" xlink:href="#av"/><use transform="matrix(0.05432111111111112,0,0,0.05432111111111112,164.86457222222225,0)" xlink:href="#aw"/><use transform="matrix(0.05432111111111112,0,0,0.05432111111111112,169.15594000000002,0)" xlink:href="#am"/><use transform="matrix(0.05432111111111112,0,0,0.05432111111111112,173.44730777777778,0)" xlink:href="#aj"/><use transform="matrix(0.05432111111111112,0,0,0.05432111111111112,184.31153,0)" xlink:href="#av"/><use transform="matrix(0.05432111111111112,0,0,0.05432111111111112,195.17575222222223,0)" xlink:href="#ar"/></g><path d="M1167 0l-161-412H364L202 0H4l575-1409h217L1362 0h-195zM685-1265c-69 226-179 482-263 704h527c-89-236-186-456-264-704" id="aR"/><path d="M189 0v-1409h191V0H189" id="aS"/><g id="C"><use transform="matrix(0.0185546875,0,0,0.0185546875,0,0)" xlink:href="#aR"/><use transform="matrix(0.0185546875,0,0,0.0185546875,25.345703125,0)" xlink:href="#Z"/><use transform="matrix(0.0185546875,0,0,0.0185546875,50.69140625,0)" xlink:href="#aS"/></g><path d="M813 20c-458 0-705-273-710-731-5-449 256-722 701-719 323 2 501 105 605 332l-182 54c-76-154-207-229-428-230-335-2-502 220-502 563 0 339 185 576 516 576 185 0 358-63 451-156v-254H843v-160h597v486C1303-77 1082 20 813 20" id="aT"/><path d="M720-1253V0H530v-1253H46v-156h1158v156H720" id="aU"/><path d="M168 0v-1409h1069v156H359v452h818v154H359v491h919V0H168" id="aV"/><path d="M544-168c91-408 108-428 333-1241h183c108 399 243 834 333 1241 89-385 93-366 334-1241h199L1511 0h-228c-108-419-218-753-314-1196C893-847 877-832 652 0H424L9-1409h199C320-995 449-600 544-168" id="aW"/><path d="M777-584V0H587v-584L45-1409h210l429 671 427-671h210" id="aX"/><g id="D"><use transform="matrix(0.0185546875,0,0,0.0185546875,0,0)" xlink:href="#aT"/><use transform="matrix(0.0185546875,0,0,0.0185546875,29.5576171875,0)" xlink:href="#aR"/><use transform="matrix(0.0185546875,0,0,0.0185546875,52.0830078125,0)" xlink:href="#aU"/><use transform="matrix(0.0185546875,0,0,0.0185546875,75.294921875,0)" xlink:href="#aV"/><use transform="matrix(0.0185546875,0,0,0.0185546875,100.640625,0)" xlink:href="#aW"/><use transform="matrix(0.0185546875,0,0,0.0185546875,135.0966796875,0)" xlink:href="#aR"/><use transform="matrix(0.0185546875,0,0,0.0185546875,157.6220703125,0)" xlink:href="#aX"/></g><path d="M797-207C713-60 620 16 414 20 203 24 88-98 87-302c0-112 37-198 111-258s192-93 356-96l243-4c10-201-43-307-232-305-154 2-223 43-242 172l-188-17c31-195 175-292 434-292s410 116 410 364v466c3 95 12 159 101 161 17 0 37-2 59-7V-6c-45 11-92 16-139 16-143-2-188-76-197-217h-6zm-525-92c-1 116 66 187 183 184 230-7 361-164 342-419-124 5-305-2-389 30-83 32-136 92-136 205" id="aY"/><path d="M137-1312v-172h180v172H137zM12 283c109-5 125-52 125-176v-1189h180V134c0 189-65 291-240 291-51 0-94-3-127-9V277" id="aZ"/><g id="E"><use transform="matrix(0.00927734375,0,0,0.00927734375,0,0)" xlink:href="#Y"/><use transform="matrix(0.00927734375,0,0,0.00927734375,5.27880859375,0)" xlink:href="#aY"/><use transform="matrix(0.00927734375,0,0,0.00927734375,15.845703125,0)" xlink:href="#S"/><use transform="matrix(0.00927734375,0,0,0.00927734375,22.1728515625,0)" xlink:href="#aZ"/><use transform="matrix(0.00927734375,0,0,0.00927734375,26.39404296875,0)" xlink:href="#W"/><use transform="matrix(0.00927734375,0,0,0.00927734375,36.9609375,0)" xlink:href="#Y"/><use transform="matrix(0.00927734375,0,0,0.00927734375,42.23974609375,0)" xlink:href="#aY"/><use transform="matrix(0.00927734375,0,0,0.00927734375,52.806640625,0)" xlink:href="#ac"/><use transform="matrix(0.00927734375,0,0,0.00927734375,62.306640625,0)" xlink:href="#U"/><use transform="matrix(0.00927734375,0,0,0.00927734375,76.02783203125,0)" xlink:href="#S"/><use transform="matrix(0.00927734375,0,0,0.00927734375,82.35498046875,0)" xlink:href="#W"/><use transform="matrix(0.00927734375,0,0,0.00927734375,92.921875,0)" xlink:href="#aa"/><use transform="matrix(0.00927734375,0,0,0.00927734375,103.48876953125,0)" xlink:href="#Q"/><use transform="matrix(0.00927734375,0,0,0.00927734375,107.7099609375,0)" xlink:href="#Y"/><use transform="matrix(0.00927734375,0,0,0.00927734375,112.98876953125,0)" xlink:href="#T"/><use transform="matrix(0.00927734375,0,0,0.00927734375,123.5556640625,0)" xlink:href="#ac"/></g><g id="F"><use transform="matrix(0.05432111111111112,0,0,0.05432111111111112,0,0)" xlink:href="#am"/><use transform="matrix(0.05432111111111112,0,0,0.05432111111111112,4.291367777777778,0)" xlink:href="#aj"/></g><g id="G"><use transform="matrix(0.05432111111111112,0,0,0.05432111111111112,0,0)" xlink:href="#aw"/><use transform="matrix(0.05432111111111112,0,0,0.05432111111111112,4.291367777777778,0)" xlink:href="#am"/><use transform="matrix(0.05432111111111112,0,0,0.05432111111111112,8.582735555555557,0)" xlink:href="#as"/><use transform="matrix(0.05432111111111112,0,0,0.05432111111111112,24.82474777777778,0)" xlink:href="#am"/><use transform="matrix(0.05432111111111112,0,0,0.05432111111111112,29.11611555555556,0)" xlink:href="#al"/><use transform="matrix(0.05432111111111112,0,0,0.05432111111111112,34.54822666666667,0)" xlink:href="#au"/><use transform="matrix(0.05432111111111112,0,0,0.05432111111111112,45.412448888888896,0)" xlink:href="#aG"/><use transform="matrix(0.05432111111111112,0,0,0.05432111111111112,59.481616666666675,0)" xlink:href="#ah"/><use transform="matrix(0.05432111111111112,0,0,0.05432111111111112,65.9458288888889,0)" xlink:href="#au"/><use transform="matrix(0.05432111111111112,0,0,0.05432111111111112,76.81005111111112,0)" xlink:href="#aj"/><use transform="matrix(0.05432111111111112,0,0,0.05432111111111112,87.67427333333335,0)" xlink:href="#am"/><use transform="matrix(0.05432111111111112,0,0,0.05432111111111112,91.96564111111113,0)" xlink:href="#al"/><use transform="matrix(0.05432111111111112,0,0,0.05432111111111112,97.39775222222224,0)" xlink:href="#ai"/></g><g id="H"><use transform="matrix(0.05432111111111112,0,0,0.05432111111111112,0,0)" xlink:href="#aG"/><use transform="matrix(0.05432111111111112,0,0,0.05432111111111112,14.06916777777778,0)" xlink:href="#aH"/><use transform="matrix(0.05432111111111112,0,0,0.05432111111111112,24.933390000000003,0)" xlink:href="#aI"/><use transform="matrix(0.05432111111111112,0,0,0.05432111111111112,30.365501111111115,0)" xlink:href="#aJ"/><use transform="matrix(0.05432111111111112,0,0,0.05432111111111112,43.40256777777778,0)" xlink:href="#aK"/><use transform="matrix(0.05432111111111112,0,0,0.05432111111111112,57.47173555555556,0)" xlink:href="#aL"/><use transform="matrix(0.05432111111111112,0,0,0.05432111111111112,69.3680588888889,0)" xlink:href="#aJ"/></g><g id="I"><use transform="matrix(0.05432111111111112,0,0,0.05432111111111112,0,0)" xlink:href="#aD"/><use transform="matrix(0.05432111111111112,0,0,0.05432111111111112,5.432111111111112,0)" xlink:href="#au"/><use transform="matrix(0.05432111111111112,0,0,0.05432111111111112,16.296333333333337,0)" xlink:href="#ak"/><use transform="matrix(0.05432111111111112,0,0,0.05432111111111112,26.074133333333336,0)" xlink:href="#aE"/><use transform="matrix(0.05432111111111112,0,0,0.05432111111111112,36.93835555555556,0)" xlink:href="#av"/><use transform="matrix(0.05432111111111112,0,0,0.05432111111111112,47.802577777777785,0)" xlink:href="#aN"/><use transform="matrix(0.05432111111111112,0,0,0.05432111111111112,60.83964444444445,0)" xlink:href="#av"/><use transform="matrix(0.05432111111111112,0,0,0.05432111111111112,71.70386666666667,0)" xlink:href="#aQ"/><use transform="matrix(0.05432111111111112,0,0,0.05432111111111112,82.5680888888889,0)" xlink:href="#ai"/></g><path d="M908-743c202 21 350 139 350 346 0 273-224 397-518 397H168v-1409h512c331 0 496 114 496 342 0 180-112 291-268 324zm-228-67c187 0 301-60 304-234 6-277-360-200-625-212v446h321zm50 657c212 0 335-66 335-259 0-166-117-249-350-249H359v508h371" id="ba"/><g id="J"><use transform="matrix(0.00927734375,0,0,0.00927734375,0,0)" xlink:href="#U"/><use transform="matrix(0.00927734375,0,0,0.00927734375,13.72119140625,0)" xlink:href="#ab"/><use transform="matrix(0.00927734375,0,0,0.00927734375,24.2880859375,0)" xlink:href="#W"/><use transform="matrix(0.00927734375,0,0,0.00927734375,34.85498046875,0)" xlink:href="#X"/><use transform="matrix(0.00927734375,0,0,0.00927734375,45.421875,0)" xlink:href="#Y"/><use transform="matrix(0.00927734375,0,0,0.00927734375,50.70068359375,0)" xlink:href="#aY"/><use transform="matrix(0.00927734375,0,0,0.00927734375,61.267578125,0)" xlink:href="#ac"/><use transform="matrix(0.00927734375,0,0,0.00927734375,70.767578125,0)" xlink:href="#ba"/><use transform="matrix(0.00927734375,0,0,0.00927734375,83.4404296875,0)" xlink:href="#aY"/><use transform="matrix(0.00927734375,0,0,0.00927734375,94.00732421875,0)" xlink:href="#X"/><use transform="matrix(0.00927734375,0,0,0.00927734375,104.57421875,0)" xlink:href="#R"/><use transform="matrix(0.00927734375,0,0,0.00927734375,114.07421875,0)" xlink:href="#aY"/><use transform="matrix(0.00927734375,0,0,0.00927734375,124.64111328125,0)" xlink:href="#S"/><use transform="matrix(0.00927734375,0,0,0.00927734375,130.96826171875,0)" xlink:href="#Q"/><use transform="matrix(0.00927734375,0,0,0.00927734375,135.189453125,0)" xlink:href="#aY"/><use transform="matrix(0.00927734375,0,0,0.00927734375,145.75634765625,0)" xlink:href="#ac"/></g><g id="K"><use transform="matrix(0.05432111111111112,0,0,0.05432111111111112,0,0)" xlink:href="#al"/><use transform="matrix(0.05432111111111112,0,0,0.05432111111111112,5.432111111111112,0)" xlink:href="#am"/><use transform="matrix(0.05432111111111112,0,0,0.05432111111111112,9.723478888888891,0)" xlink:href="#an"/><use transform="matrix(0.05432111111111112,0,0,0.05432111111111112,20.587701111111116,0)" xlink:href="#ai"/><use transform="matrix(0.05432111111111112,0,0,0.05432111111111112,31.451923333333337,0)" xlink:href="#ao"/><use transform="matrix(0.05432111111111112,0,0,0.05432111111111112,37.91613555555556,0)" xlink:href="#av"/><use transform="matrix(0.05432111111111112,0,0,0.05432111111111112,48.78035777777779,0)" xlink:href="#aE"/><use transform="matrix(0.05432111111111112,0,0,0.05432111111111112,59.644580000000005,0)" xlink:href="#ai"/><use transform="matrix(0.05432111111111112,0,0,0.05432111111111112,70.50880222222224,0)" xlink:href="#ah"/><use transform="matrix(0.05432111111111112,0,0,0.05432111111111112,76.97301444444446,0)" xlink:href="#ah"/><use transform="matrix(0.05432111111111112,0,0,0.05432111111111112,83.43722666666667,0)" xlink:href="#ai"/><use transform="matrix(0.05432111111111112,0,0,0.05432111111111112,94.3014488888889,0)" xlink:href="#ap"/><use transform="matrix(0.05432111111111112,0,0,0.05432111111111112,99.73356000000001,0)" xlink:href="#ak"/><use transform="matrix(0.05432111111111112,0,0,0.05432111111111112,109.51136000000001,0)" xlink:href="#ai"/><use transform="matrix(0.05432111111111112,0,0,0.05432111111111112,120.37558222222223,0)" xlink:href="#ah"/><use transform="matrix(0.05432111111111112,0,0,0.05432111111111112,126.83979444444446,0)" xlink:href="#ah"/><use transform="matrix(0.05432111111111112,0,0,0.05432111111111112,133.30400666666668,0)" xlink:href="#am"/><use transform="matrix(0.05432111111111112,0,0,0.05432111111111112,137.59537444444445,0)" xlink:href="#au"/><use transform="matrix(0.05432111111111112,0,0,0.05432111111111112,148.45959666666667,0)" xlink:href="#ag"/><use transform="matrix(0.05432111111111112,0,0,0.05432111111111112,159.3238188888889,0)" xlink:href="#al"/><use transform="matrix(0.05432111111111112,0,0,0.05432111111111112,164.75593,0)" xlink:href="#au"/><use transform="matrix(0.05432111111111112,0,0,0.05432111111111112,175.62015222222223,0)" xlink:href="#ap"/><use transform="matrix(0.05432111111111112,0,0,0.05432111111111112,181.05226333333334,0)" xlink:href="#an"/><use transform="matrix(0.05432111111111112,0,0,0.05432111111111112,191.91648555555557,0)" xlink:href="#aw"/><use transform="matrix(0.05432111111111112,0,0,0.05432111111111112,196.20785333333333,0)" xlink:href="#av"/><use transform="matrix(0.05432111111111112,0,0,0.05432111111111112,207.07207555555556,0)" xlink:href="#az"/><use transform="matrix(0.05432111111111112,0,0,0.05432111111111112,216.84987555555557,0)" xlink:href="#ai"/></g><path d="M24-231v-30h32v30H24zM-9 49c24 4 33-6 33-30v-209h32V24c2 40-23 58-65 49V49" id="bb"/><g id="L"><use transform="matrix(0.05432111111111112,0,0,0.05432111111111112,0,0)" xlink:href="#aD"/><use transform="matrix(0.05432111111111112,0,0,0.05432111111111112,5.432111111111112,0)" xlink:href="#am"/><use transform="matrix(0.05432111111111112,0,0,0.05432111111111112,9.723478888888891,0)" xlink:href="#bb"/><use transform="matrix(0.05432111111111112,0,0,0.05432111111111112,14.014846666666672,0)" xlink:href="#ai"/><use transform="matrix(0.05432111111111112,0,0,0.05432111111111112,24.879068888888895,0)" xlink:href="#ar"/></g><g id="M"><use transform="matrix(0.05432111111111112,0,0,0.05432111111111112,0,0)" xlink:href="#aA"/><use transform="matrix(0.05432111111111112,0,0,0.05432111111111112,13.037066666666668,0)" xlink:href="#av"/><use transform="matrix(0.05432111111111112,0,0,0.05432111111111112,23.901288888888892,0)" xlink:href="#aw"/><use transform="matrix(0.05432111111111112,0,0,0.05432111111111112,28.19265666666667,0)" xlink:href="#aj"/><use transform="matrix(0.05432111111111112,0,0,0.05432111111111112,39.056878888888896,0)" xlink:href="#ai"/></g><g id="N"><use transform="matrix(0.05432111111111112,0,0,0.05432111111111112,0,0)" xlink:href="#aO"/><use transform="matrix(0.05432111111111112,0,0,0.05432111111111112,16.242012222222225,0)" xlink:href="#av"/><use transform="matrix(0.05432111111111112,0,0,0.05432111111111112,27.10623444444445,0)" xlink:href="#ag"/><use transform="matrix(0.05432111111111112,0,0,0.05432111111111112,37.97045666666668,0)" xlink:href="#al"/><use transform="matrix(0.05432111111111112,0,0,0.05432111111111112,43.40256777777779,0)" xlink:href="#au"/><use transform="matrix(0.05432111111111112,0,0,0.05432111111111112,54.266790000000015,0)" xlink:href="#ag"/><use transform="matrix(0.05432111111111112,0,0,0.05432111111111112,65.13101222222224,0)" xlink:href="#am"/><use transform="matrix(0.05432111111111112,0,0,0.05432111111111112,69.42238000000002,0)" xlink:href="#as"/><use transform="matrix(0.05432111111111112,0,0,0.05432111111111112,85.66439222222225,0)" xlink:href="#am"/><use transform="matrix(0.05432111111111112,0,0,0.05432111111111112,89.95576000000003,0)" xlink:href="#au"/><use transform="matrix(0.05432111111111112,0,0,0.05432111111111112,100.81998222222225,0)" xlink:href="#ag"/><use transform="matrix(0.05432111111111112,0,0,0.05432111111111112,111.68420444444449,0)" xlink:href="#al"/><use transform="matrix(0.05432111111111112,0,0,0.05432111111111112,117.1163155555556,0)" xlink:href="#ai"/></g><g id="O"><use transform="matrix(0.05432111111111112,0,0,0.05432111111111112,0,0)" xlink:href="#au"/><use transform="matrix(0.05432111111111112,0,0,0.05432111111111112,10.864222222222224,0)" xlink:href="#ax"/><use transform="matrix(0.05432111111111112,0,0,0.05432111111111112,20.642022222222224,0)" xlink:href="#al"/><use transform="matrix(0.05432111111111112,0,0,0.05432111111111112,26.074133333333336,0)" xlink:href="#av"/><use transform="matrix(0.05432111111111112,0,0,0.05432111111111112,36.93835555555556,0)" xlink:href="#aj"/><use transform="matrix(0.05432111111111112,0,0,0.05432111111111112,47.802577777777785,0)" xlink:href="#ai"/></g></defs></g></svg>